<?xml version="1.0" encoding="utf-8"?>
<!-- Generator: Adobe Illustrator 21.0.2, SVG Export Plug-In . SVG Version: 6.00 Build 0)  -->
<svg version="1.1" id="Capa_1" xmlns="http://www.w3.org/2000/svg" xmlns:xlink="http://www.w3.org/1999/xlink" x="0px" y="0px"
	 viewBox="0 0 512 512" style="enable-background:new 0 0 512 512;" xml:space="preserve">
<style type="text/css">
	.st0{fill:none;stroke:#FFFFFF;stroke-width:18;stroke-miterlimit:10;}
	.st1{fill:#FFFFFF;}
</style>
<circle class="st0" cx="246" cy="245.5" r="208"/>
<g>
	<path class="st1" d="M310.5,108.1h-127c-41.3,0-74.9,33.6-74.9,74.9v127c0,41.3,33.6,74.9,74.9,74.9h126.9
		c41.3,0,74.9-33.6,74.9-74.9V183C385.4,141.7,351.8,108.1,310.5,108.1L310.5,108.1z M247,322.2c-41.7,0-75.7-34-75.7-75.7
		s33.9-75.7,75.7-75.7c41.7,0,75.7,33.9,75.7,75.7C322.7,288.2,288.7,322.2,247,322.2L247,322.2z M324.5,188.7
		c-12.3,0-22.4-10-22.4-22.4c0-12.3,10-22.4,22.4-22.4s22.4,10,22.4,22.4C346.9,178.6,336.8,188.7,324.5,188.7L324.5,188.7z"/>
	<path class="st1" d="M247,187c-32.8,0-59.5,26.7-59.5,59.5S214.2,306,247,306s59.5-26.7,59.5-59.5S279.8,187,247,187L247,187z"/>
	<path class="st1" d="M324.5,160.2c-3.4,0-6.1,2.8-6.1,6.1c0,3.4,2.8,6.1,6.1,6.1c3.4,0,6.1-2.8,6.1-6.1
		C330.6,162.9,327.9,160.2,324.5,160.2L324.5,160.2z"/>
</g>
</svg>
