<?xml version="1.0" encoding="utf-8"?>
<!-- Generator: Adobe Illustrator 21.0.2, SVG Export Plug-In . SVG Version: 6.00 Build 0)  -->
<svg version="1.1" id="Capa_1" xmlns="http://www.w3.org/2000/svg" xmlns:xlink="http://www.w3.org/1999/xlink" x="0px" y="0px"
	 viewBox="0 0 512 512" style="enable-background:new 0 0 512 512;" xml:space="preserve">
<style type="text/css">
	.st0{fill:none;stroke:#FCFCFC;stroke-width:18;stroke-miterlimit:10;}
	.st1{fill:#FFFFFF;}
	.st2{fill:#222221;}
</style>
<circle class="st0" cx="256" cy="246.5" r="208"/>
<g id="XMLID_1729_">
	<path id="XMLID_1846_" class="st1" d="M405.9,168.7c-3.7-13.8-14.5-24.7-28.2-28.4c-24.9-6.7-124.7-6.7-124.7-6.7
		s-99.8,0-124.7,6.7c-13.7,3.7-24.6,14.6-28.2,28.4c-6.7,25.1-6.7,77.3-6.7,77.3s0,52.3,6.7,77.3c3.7,13.8,14.5,24.7,28.2,28.4
		c24.9,6.7,124.7,6.7,124.7,6.7s99.8,0,124.7-6.7c13.7-3.7,24.6-14.6,28.2-28.4c6.7-25.1,6.7-77.3,6.7-77.3S412.6,193.8,405.9,168.7
		z"/>
	<polygon id="XMLID_1730_" class="st2" points="220.4,293.5 220.4,198.6 303.8,246 	"/>
</g>
</svg>
