<svg width="512" height="512" viewBox="0 0 512 512" fill="none" xmlns="http://www.w3.org/2000/svg">
<path d="M256 39.9C136.9 39.9 39.9 136.9 39.9 256C39.9 375.1 136.9 472.1 256 472.1C375.1 472.1 472.1 375.1 472.1 256C472.1 136.9 375.1 39.9 256 39.9ZM256 452.1C147.9 452.1 59.9 364.1 59.9 256C59.9 147.9 147.9 59.9 256 59.9C364.1 59.9 452.1 147.9 452.1 256C452.1 364.1 364.1 452.1 256 452.1Z" fill="white"/>
<path d="M265.2 243.9L350.7 144.4H331.1L314.4 163.8L256.5 231.2L201.3 151L196.7 144.4H129L145.5 168.4L218.9 275L128.7 380H148.3L227.6 287.7L286.5 373.3L291.1 379.9H358.9L342.4 355.9L265.2 243.9ZM299.2 364.6L238 275.6L229.3 262.9L158.2 159.7H188.8L246.3 243.2L255 255.9L329.8 364.6H299.2Z" fill="white"/>
</svg>
